# xmcd
#
# Track frame offsets: 
#        150
#        14996
#        28082
#        40953
#        54151
#        65874
#        79720
#        92895
#        106414
#        119653
#        132725
#        146461
#        160518
#        174231
#        188269
#        201651
#        216716
#        230221
#        244455
#        258173
#        271806
#        286089
#        298346
#        311298
#        324905
#
# Disc length: 4509 seconds
#
# Revision: 0
# Processed by: cddbd v1.5.1PL2 Copyright (c) Steve Scherf et al.
# Submitted via: ExactAudioCopy v0.95b4
#
DISCID=83119b19
DTITLE=Josh White - Josh White - Roots Of The Blues
DYEAR=2004
DGENRE=Blues
TTITLE0=Black and Evil Blues
TTITLE1=Double Crossing Woman
TTITLE2=Blood Red River Blues
TTITLE3=I Believe I'll Make A Change
TTITLE4=Gone Mother Blues
TTITLE5=Little Brother Blues
TTITLE6=Lazy Black Snake Blues
TTITLE7=New Milk Cow Blues
TTITLE8=Prison Bound Blues
TTITLE9=Friendless City Blues
TTITLE10=Silicosis Is Killin' Me
TTITLE11=Good Gal
TTITLE12=Baby, Won't You Doodle Doo-Doo
TTITLE13=Crying Blues
TTITLE14=Black Gal Blues
TTITLE15=Hard Time Blues
TTITLE16=Bed Spring Blues
TTITLE17=You Got To Give Me Some Of It
TTITLE18=Wang Wang Harmonica Blues
TTITLE19=Good Woman Blues
TTITLE20=Oh Lordy Mama No.2
TTITLE21=Barbecue Bess
TTITLE22=School Boy Blues
TTITLE23=Mistreated Boy
TTITLE24=45 Pistol Blues
EXTD=
EXTT0=
EXTT1=
EXTT2=
EXTT3=
EXTT4=
EXTT5=
EXTT6=
EXTT7=
EXTT8=
EXTT9=
EXTT10=
EXTT11=
EXTT12=
EXTT13=
EXTT14=
EXTT15=
EXTT16=
EXTT17=
EXTT18=
EXTT19=
EXTT20=
EXTT21=
EXTT22=
EXTT23=
EXTT24=
PLAYORDER=
